<?xml version="1.0" encoding="iso-8859-1"?>
<!-- Generator: Adobe Illustrator 16.0.0, SVG Export Plug-In . SVG Version: 6.00 Build 0)  -->
<!DOCTYPE svg PUBLIC "-//W3C//DTD SVG 1.1//EN" "http://www.w3.org/Graphics/SVG/1.1/DTD/svg11.dtd">
<svg fill="#6fb3eb" version="1.1" id="Capa_1" xmlns="http://www.w3.org/2000/svg" xmlns:xlink="http://www.w3.org/1999/xlink" x="0px" y="0px"
	 width="612px" height="612px" viewBox="0 0 612 612" style="enable-background:new 0 0 612 612;" xml:space="preserve">
<g>
	<path d="M339.296,19.573c-92.187,0-173.778,46.021-223.165,116.25c10.221,6.668,20.184,15.812,29.82,27.567
		c36.844-55.091,96.417-93.743,165.344-102.052l27.997,47.377l27.997-47.378c105.952,12.769,190.17,96.983,202.945,202.934
		l-47.385,28.001l47.386,28.002c-8.54,70.836-49.108,131.821-106.661,168.372c3.666,8.357,5.731,16.902,6.096,25.712
		c0.269,6.438-0.395,12.521-1.73,18.296C553.609,486.622,612,396.153,612,292.277C612,141.904,489.669,19.573,339.296,19.573z
		 M408.887,468.69c-62.865-50.523-80.444-25.688-108.968,2.832c-19.914,19.921-70.308-21.678-113.821-65.193
		c-43.516-43.521-85.107-93.907-65.195-113.824c28.526-28.521,53.354-46.11,2.817-108.958
		c-50.52-62.871-84.198-14.603-111.829,13.03c-31.9,31.889-1.681,150.726,115.769,268.194
		c117.466,117.452,236.302,147.651,268.183,115.774C423.471,552.911,471.753,519.237,408.887,468.69z M217.426,334.954
		c0-55.88,65.42-65.835,65.42-87.641c0-10.581-8.47-15.023-16.304-15.023c-14.397,0-22.434,16.083-22.434,16.083l-27.521-18.415
		c0,0,13.973-32.6,53.346-32.6c24.766,0,51.65,14.185,51.65,46.36c0,47.208-60.968,56.314-62.028,75.789h64.36v31.751H219.123
		C218.062,345.332,217.426,340.043,217.426,334.954z M339.391,292.199l58.434-92.305h45.301v84.047h17.991v30.691h-17.991v36.628
		h-36.628v-36.628h-67.106V292.199L339.391,292.199z M406.497,283.94v-33.871c0-8.258,1.272-16.94,1.272-16.94h-0.424
		c0,0-3.171,9.318-7.41,15.669l-22.857,34.72v0.424L406.497,283.94L406.497,283.94z"/>
</g>
<g>
</g>
<g>
</g>
<g>
</g>
<g>
</g>
<g>
</g>
<g>
</g>
<g>
</g>
<g>
</g>
<g>
</g>
<g>
</g>
<g>
</g>
<g>
</g>
<g>
</g>
<g>
</g>
<g>
</g>
</svg>
