<svg fill="white" id="Capa_1" enable-background="new 0 0 512 512" height="512" viewBox="0 0 512 512" width="512" xmlns="http://www.w3.org/2000/svg"><path d="m46.443 0v512h419.113v-512zm389.114 482h-359.114v-452h89.89v70.333h179.334v-70.333h89.89zm-119.89-452v40.333h-119.334v-40.333z"/><path d="m194.832 155.667h183.835v30h-183.835z"/><path d="m133.333 155.667h31.499v30h-31.499z"/><path d="m194.832 219.667h183.835v30h-183.835z"/><path d="m133.333 219.667h31.499v30h-31.499z"/><path d="m133.333 283.667h31.499v30h-31.499z"/><path d="m194.832 283.667h183.835v30h-183.835z"/><path d="m133.333 379.667h80v30h-80z"/><path d="m298.667 394.787-21.394-21.393-21.213 21.212 42.607 42.607 63.939-63.94-21.212-21.213z"/></svg>