<svg fill="#6fb3eb" id="Layer_1" enable-background="new 0 0 512 512" height="512" viewBox="0 0 512 512" width="512" xmlns="http://www.w3.org/2000/svg"><g><path d="m464 192h-41.38l-123.31-123.31c15.177-31.615-7.968-68.69-43.31-68.69-35.351 0-58.483 37.084-43.31 68.69l-123.31 123.31h-41.38c-26.47 0-48 21.53-48 48v224c0 26.47 21.53 48 48 48h416c26.47 0 48-21.53 48-48v-224c0-26.47-21.53-48-48-48zm-360 176h-16c-22.06 0-40-17.94-40-40s17.94-40 40-40h40c8.84 0 16 7.16 16 16s-7.16 16-16 16h-40c-4.41 0-8 3.59-8 8s3.59 8 8 8h16c22.06 0 40 17.94 40 40s-17.94 40-40 40h-40c-8.84 0-16-7.16-16-16s7.16-16 16-16h40c4.41 0 8-3.59 8-8s-3.59-8-8-8zm232 16c8.84 0 16 7.16 16 16s-7.16 16-16 16h-48c-8.84 0-16-7.16-16-16v-96c0-8.84 7.16-16 16-16s16 7.16 16 16v80zm-144-8v24c0 8.84-7.16 16-16 16s-16-7.16-16-16v-64c0-26.47 21.53-48 48-48s48 21.53 48 48v64c0 8.84-7.16 16-16 16s-16-7.16-16-16v-24zm256 40h-64c-8.84 0-16-7.16-16-16v-96c0-8.84 7.16-16 16-16h64c8.84 0 16 7.16 16 16s-7.16 16-16 16h-48v16h32c8.84 0 16 7.16 16 16s-7.16 16-16 16h-32v16h48c8.84 0 16 7.16 16 16s-7.16 16-16 16zm-212.69-324.69c12.874 6.181 28.195 6.329 41.38 0l100.69 100.69h-242.76z"/><path d="m224 336c0-8.82-7.18-16-16-16s-16 7.18-16 16v8h32z"/></g></svg>